<svg id="Layer_1" data-name="Layer 1" xmlns="http://www.w3.org/2000/svg" viewBox="0 0 2064 1029"><defs><style>.cls-1{fill:#fff;}.cls-1,.cls-2{stroke:#248aca;stroke-linecap:round;stroke-linejoin:round;stroke-width:4px;}.cls-2{fill:#59b4e5;}</style></defs><title>Artboard 1</title><path class="cls-1" d="M282.27 397.48l-15.62 40.9s46.48-6.32 75.48 29V413.1s-23.79-23.43-59.86-15.62zm185 34.52l-37.66 31.09s48.57 19.45 57.27 69.68l29.88-52.67s-10.2-35.86-49.49-48.1zm1569.15 355.44s-64.42 208.38-163.54 212.4c-151.48 6.15-174.3-164.25-174.3-164.25s139-46.88 186-202.1z"/><path class="cls-2" d="M1898.09 994.36s-13.92 5-25.2 5.48c-151.48 6.15-174.3-164.25-174.3-164.25s58.49 113.18 205.33 90c0 0-12 22.15-13.22 38.59a50.47 50.47 0 0 0 7.39 30.18z"/><path class="cls-1" d="M1117.15 742.41s57.67 6 169.32-106.4c0 0 23.38 65 48.09 103.3 0 0-47.9 99.89-153.5 117.22-.01 0-12.93-56.74-63.91-114.12z"/><path class="cls-2" d="M813.6 589.94l23.81 104.66s82.43-14.33 115.52 48.81c0 0 59.38-64.09-4.85-124.3S813.6 589.94 813.6 589.94z"/><path class="cls-1" d="M957.81 629.33s44.36 40.08.1 109.81c-7 11-27.52 18.36-27.52 18.36s29.88-53.7-4.9-115.71c-.01 0 21.89 1.51 32.32-12.46zM557.22 605s18.35-4.55 34.88-59.86c0 0 35.07 44.92 97.56 54.46 0 0-25.66 39.34-17.8 77.29 0 .01-61.01 15.66-114.64-71.89z"/><path class="cls-2" d="M217.69 377.69s.16-25.14-12.36-40.9c-5.72-7.2-14.08-12.44-26.31-12.44l-17.1 21.37S186 356.36 176.69 394z"/><path class="cls-1" d="M105.22 244.17s-.33 31 8 40c0 0-28.67 2-55 23.67l4-38s25-6.01 43-25.67zm1586.03 199.21s-9.85 157.19 30.07 205c0 0-146 2.61-285.27 105.61l30.29-191.74s128.41-23.82 224.91-118.87zM94.39 61.89s18.33-8 23-27a30.73 30.73 0 0 1 23.67 20.33s-10.67 27.33-36.33 25z"/><path class="cls-2" d="M110.31 155.77c-5.39-7.5-13.92-14.48-26.58-15.81-31.49-3.32-46.67 19-46.67 19l23.17 23.67s5.99-32.05 50.08-26.86z"/><path class="cls-1" d="M119.72 180.29s-1.53-13.54-9.42-24.52c-5.39-7.5-13.92-14.48-26.58-15.81-31.49-3.32-46.67 19-46.67 19s45.34-11.34 82.67 21.33zM196 351c-27.33-19.67-51.67 5.67-51.67 5.67s5.33-32.33 34.67-32.33c12.23 0 20.59 5.24 26.31 12.44A28.26 28.26 0 0 0 196 351z"/></svg>