<?xml version="1.0" encoding="UTF-8" standalone="no"?>
<svg width="128px" height="36px" viewBox="0 0 128 36" version="1.1" xmlns="http://www.w3.org/2000/svg" xmlns:xlink="http://www.w3.org/1999/xlink">
    <!-- Generator: Sketch 3.8.3 (29802) - http://www.bohemiancoding.com/sketch -->
    <title>simple-small-applications</title>
    <desc>Created with Sketch.</desc>
    <defs></defs>
    <g id="Page-1" stroke="none" stroke-width="1" fill="none" fill-rule="evenodd">
        <g id="simple-small-applications" transform="translate(0.000000, -4.000000)">
            <path d="M53.314,21.569 C56.156,22.261 57.637,23.279 57.637,25.525 C57.637,28.061 55.658,29.559 52.836,29.559 C50.779,29.559 48.84,28.849 47.229,27.407 L48.648,25.718 C49.935,26.832 51.223,27.466 52.893,27.466 C54.352,27.466 55.273,26.794 55.273,25.757 C55.273,24.776 54.736,24.259 52.24,23.683 C49.379,22.991 47.766,22.146 47.766,19.649 C47.766,17.307 49.686,15.731 52.355,15.731 C54.314,15.731 55.869,16.327 57.232,17.421 L55.965,19.207 C54.756,18.306 53.547,17.825 52.316,17.825 C50.934,17.825 50.127,18.535 50.127,19.438 C50.127,20.494 50.742,20.955 53.314,21.569" id="Fill-1" fill="#2D2E2C"></path>
            <polygon id="Fill-2" fill="#2D2E2C" points="62.857 29.367 65.22 29.367 65.22 15.923 62.857 15.923"></polygon>
            <polyline id="Fill-3" fill="#2D2E2C" points="76.965 25.046 73.437 19.765 73.437 29.367 71.115 29.367 71.115 15.923 73.631 15.923 77.721 22.28 81.811 15.923 84.326 15.923 84.326 29.367 81.965 29.367 81.965 19.726 78.402 25.046 76.965 25.046"></polyline>
            <path d="M95.193,18.075 L92.447,18.075 L92.447,22.915 L95.193,22.915 C96.98,22.915 98.094,21.935 98.094,20.494 C98.094,18.9 96.961,18.075 95.193,18.075 L95.193,18.075 Z M95.117,25.046 L92.447,25.046 L92.447,29.367 L90.086,29.367 L90.086,15.923 L95.387,15.923 C98.516,15.923 100.494,17.69 100.494,20.437 C100.494,23.472 98.074,25.046 95.117,25.046 L95.117,25.046 Z" id="Fill-4" fill="#2D2E2C"></path>
            <polyline id="Fill-5" fill="#2D2E2C" points="104.641 15.923 107.004 15.923 107.004 27.216 114.07 27.216 114.07 29.367 104.641 29.367 104.641 15.923"></polyline>
            <polyline id="Fill-6" fill="#2D2E2C" points="127.895 18.036 120.191 18.036 120.191 21.531 127.646 21.531 127.646 23.644 120.191 23.644 120.191 27.254 127.895 27.254 127.895 29.367 117.83 29.367 117.83 15.923 127.895 15.923 127.895 18.036"></polyline>
            <path d="M31.223,22.004 L31.893,21.668 C30.969,19.821 29.714,18.396 28.564,17.275 C27.423,16.164 26.401,15.309 25.511,14.418 C24.62,13.528 23.768,12.504 22.656,11.362 C21.537,10.212 20.112,8.952 18.266,8.027 C16.701,7.243 14.854,6.738 12.932,6.737 C12.579,6.737 12.224,6.754 11.868,6.79 C9.572,7.021 7.321,8.036 5.646,9.705 C3.977,11.376 2.958,13.626 2.723,15.924 C2.686,16.282 2.669,16.639 2.669,16.994 C2.669,18.914 3.175,20.759 3.954,22.324 C4.877,24.172 6.134,25.597 7.283,26.717 C8.426,27.83 9.446,28.685 10.339,29.577 L10.338,29.576 C11.228,30.466 12.082,31.49 13.191,32.631 C14.31,33.782 15.735,35.041 17.58,35.966 C19.149,36.749 20.998,37.256 22.92,37.257 C23.271,37.257 23.625,37.24 23.979,37.204 C26.278,36.971 28.527,35.956 30.202,34.288 C31.874,32.617 32.891,30.365 33.125,28.069 L33.125,28.07 C33.162,27.71 33.179,27.351 33.18,26.994 C33.179,25.076 32.672,23.232 31.894,21.67 L31.893,21.668 L31.223,22.004 L30.551,22.338 C31.236,23.711 31.68,25.344 31.68,26.994 C31.68,27.302 31.664,27.609 31.633,27.917 L31.633,27.918 C31.437,29.875 30.552,31.823 29.142,33.226 C27.735,34.634 25.789,35.516 23.829,35.712 C23.526,35.742 23.223,35.757 22.92,35.757 C21.265,35.758 19.629,35.314 18.251,34.625 C16.62,33.807 15.322,32.672 14.266,31.585 C13.203,30.493 12.354,29.474 11.4,28.516 L11.399,28.515 C10.44,27.56 9.425,26.711 8.33,25.643 C7.245,24.585 6.112,23.289 5.296,21.654 C4.611,20.281 4.168,18.647 4.169,16.994 C4.169,16.689 4.184,16.382 4.215,16.076 C4.413,14.118 5.3,12.169 6.706,10.766 C8.113,9.359 10.061,8.477 12.018,8.282 C12.323,8.252 12.628,8.237 12.932,8.237 C14.587,8.236 16.221,8.679 17.594,9.368 C19.228,10.186 20.525,11.321 21.581,12.409 C22.646,13.5 23.493,14.519 24.45,15.478 C25.407,16.435 26.425,17.284 27.517,18.35 C28.603,19.407 29.734,20.704 30.552,22.34 L30.551,22.338 L31.223,22.004" id="Fill-7" fill="#D87059"></path>
            <path d="M28.344,22.003 L29.058,22.23 C29.204,21.773 29.355,21.291 29.499,20.776 L29.499,20.778 C29.88,19.434 30.217,17.847 30.217,16.096 C30.217,15.837 30.21,15.574 30.194,15.308 L30.194,15.307 C30.111,13.932 29.8,12.491 29.196,11.12 L29.195,11.118 C28.889,10.433 28.513,9.771 28.069,9.15 L28.067,9.147 C26.715,7.275 24.711,5.833 22.429,5.218 C21.579,4.99 20.703,4.878 19.828,4.878 C19.14,4.878 18.453,4.947 17.781,5.085 C17.022,5.24 16.281,5.482 15.581,5.796 C13.477,6.743 11.8,8.335 10.657,10.063 C9.897,11.212 9.37,12.403 8.989,13.523 L8.988,13.526 C8.801,14.083 8.648,14.625 8.517,15.144 L8.517,15.141 C8.123,16.687 7.897,18.001 7.567,19.214 L7.566,19.217 C7.349,20.031 7.082,20.851 6.79,21.763 L6.785,21.776 L6.788,21.767 C6.646,22.219 6.494,22.7 6.347,23.215 L6.347,23.216 C5.967,24.56 5.632,26.146 5.632,27.893 C5.632,28.153 5.64,28.417 5.656,28.684 C5.737,30.059 6.045,31.503 6.654,32.875 C6.958,33.559 7.335,34.222 7.781,34.844 L7.782,34.845 C9.133,36.719 11.137,38.159 13.416,38.775 C14.27,39.003 15.148,39.116 16.024,39.116 C16.71,39.116 17.395,39.047 18.064,38.91 C18.827,38.753 19.566,38.512 20.268,38.197 C22.371,37.249 24.049,35.659 25.192,33.93 L25.192,33.931 C25.952,32.782 26.48,31.589 26.857,30.469 L26.856,30.472 C27.048,29.911 27.202,29.368 27.333,28.849 L27.332,28.851 C27.725,27.307 27.953,25.992 28.281,24.778 C28.5,23.963 28.768,23.142 29.058,22.23 L28.344,22.003 L27.629,21.775 C27.341,22.68 27.066,23.521 26.832,24.388 C26.481,25.695 26.256,27.004 25.879,28.481 L25.878,28.483 C25.755,28.971 25.612,29.474 25.437,29.987 L25.436,29.99 C25.09,31.015 24.614,32.087 23.941,33.102 L23.917,33.139 L23.94,33.104 C22.939,34.624 21.45,36.022 19.653,36.829 C19.051,37.099 18.415,37.306 17.763,37.44 C17.194,37.557 16.609,37.616 16.024,37.616 C15.276,37.616 14.527,37.52 13.805,37.326 C11.886,36.812 10.148,35.568 8.999,33.969 L9,33.97 C8.614,33.432 8.288,32.859 8.025,32.266 C7.498,31.081 7.224,29.81 7.153,28.596 C7.139,28.359 7.132,28.125 7.132,27.893 C7.132,26.339 7.432,24.892 7.79,23.624 L7.79,23.625 C7.928,23.138 8.076,22.672 8.219,22.216 L8.218,22.22 C8.508,21.313 8.784,20.471 9.016,19.604 L9.015,19.606 C9.369,18.298 9.592,16.99 9.971,15.513 L9.971,15.51 C10.094,15.021 10.238,14.517 10.41,14.003 L10.409,14.006 C10.759,12.978 11.235,11.907 11.909,10.891 C12.911,9.37 14.398,7.97 16.196,7.165 C16.797,6.895 17.435,6.686 18.082,6.554 C18.654,6.437 19.241,6.378 19.828,6.378 C20.574,6.378 21.321,6.474 22.04,6.667 C23.961,7.181 25.699,8.426 26.851,10.025 L26.849,10.022 C27.233,10.559 27.56,11.134 27.825,11.728 L27.833,11.747 L27.824,11.726 C28.348,12.913 28.624,14.184 28.697,15.398 L28.697,15.397 C28.71,15.632 28.717,15.865 28.717,16.096 C28.717,17.653 28.416,19.1 28.056,20.368 L28.055,20.371 C27.918,20.858 27.773,21.323 27.629,21.776 L28.344,22.003" id="Fill-8" fill="#3F7B85"></path>
            <path d="M12.027,34.282 C11.763,34.282 11.495,34.275 11.225,34.258 C10.481,34.214 9.719,34.103 8.96,33.914 C8.592,33.393 8.279,32.838 8.025,32.266 C7.986,32.178 7.948,32.088 7.911,31.999 C9.021,32.452 10.19,32.694 11.315,32.761 C11.555,32.776 11.792,32.782 12.027,32.782 L12.029,32.782 C12.454,32.782 12.871,32.76 13.278,32.72 C13.703,33.153 14.172,33.6 14.691,34.038 C13.858,34.186 12.966,34.282 12.027,34.282 M16.574,33.606 C16.05,33.23 15.569,32.829 15.125,32.422 C15.526,32.333 15.913,32.234 16.286,32.129 C16.774,31.991 17.237,31.846 17.688,31.701 L17.69,31.7 C18.597,31.412 19.441,31.139 20.306,30.907 C21.616,30.558 22.921,30.334 24.399,29.957 C24.777,29.863 25.163,29.756 25.553,29.634 C25.516,29.751 25.477,29.869 25.437,29.987 L25.436,29.99 C25.282,30.447 25.102,30.914 24.89,31.38 C24.848,31.391 24.808,31.401 24.767,31.411 C23.224,31.803 21.912,32.03 20.694,32.356 C19.879,32.574 19.056,32.84 18.145,33.13 L18.148,33.129 C17.688,33.277 17.207,33.427 16.693,33.573 C16.653,33.584 16.614,33.595 16.574,33.606 M6.774,33.136 C6.18,32.853 5.607,32.516 5.067,32.125 C3.194,30.773 1.752,28.767 1.141,26.484 C0.914,25.637 0.803,24.763 0.802,23.891 C0.803,23.2 0.872,22.511 1.012,21.837 L1.011,21.838 C1.168,21.074 1.412,20.337 1.726,19.639 C2.002,19.025 2.334,18.448 2.707,17.91 C2.772,18.692 2.916,19.456 3.125,20.186 C3.114,20.209 3.104,20.232 3.094,20.254 C2.822,20.857 2.614,21.49 2.481,22.139 L2.481,22.14 C2.362,22.713 2.302,23.302 2.302,23.891 C2.302,24.635 2.398,25.379 2.59,26.097 C3.1,28.018 4.345,29.758 5.946,30.909 C5.962,30.921 5.979,30.933 5.996,30.945 C6.156,31.595 6.373,32.243 6.654,32.875 C6.693,32.962 6.733,33.049 6.774,33.136 M26.735,30.818 C26.778,30.701 26.818,30.585 26.857,30.47 C27.033,29.953 27.178,29.452 27.302,28.971 C27.882,28.708 28.462,28.397 29.024,28.025 C29.96,27.409 30.851,26.608 31.587,25.664 C31.647,26.103 31.68,26.548 31.68,26.994 C31.68,27.277 31.667,27.559 31.64,27.842 C31.077,28.386 30.472,28.866 29.851,29.277 C28.82,29.958 27.753,30.45 26.735,30.818 M33.141,26.082 C33.076,25.3 32.932,24.537 32.723,23.807 C32.733,23.785 32.743,23.764 32.752,23.742 L32.754,23.738 C33.026,23.138 33.234,22.505 33.367,21.854 L34.102,22.005 L33.367,21.854 C33.485,21.279 33.545,20.689 33.545,20.099 C33.545,19.356 33.45,18.612 33.26,17.896 L33.26,17.897 C32.748,15.975 31.505,14.236 29.906,13.087 L29.903,13.085 C29.886,13.072 29.868,13.059 29.851,13.047 C29.691,12.399 29.474,11.752 29.196,11.12 L29.195,11.118 C29.156,11.031 29.116,10.944 29.075,10.858 C29.665,11.139 30.238,11.475 30.779,11.867 L30.782,11.869 C32.656,13.22 34.096,15.226 34.709,17.509 L34.709,17.51 C34.934,18.356 35.045,19.229 35.045,20.099 C35.045,20.79 34.975,21.48 34.836,22.155 C34.68,22.917 34.438,23.657 34.12,24.358 L34.121,24.356 C33.845,24.968 33.514,25.544 33.141,26.082 M32.744,23.762 L32.753,23.74 C32.753,23.741 32.753,23.742 32.752,23.742 L32.744,23.762 M4.261,18.328 C4.201,17.888 4.168,17.442 4.169,16.994 C4.169,16.713 4.181,16.431 4.208,16.15 C4.771,15.606 5.375,15.125 5.997,14.715 C7.028,14.036 8.094,13.543 9.111,13.176 C9.069,13.292 9.028,13.408 8.989,13.523 L8.988,13.526 C8.816,14.039 8.672,14.54 8.548,15.021 C7.967,15.285 7.386,15.596 6.823,15.967 C5.887,16.584 4.996,17.384 4.261,18.328 M10.295,14.36 C10.332,14.242 10.37,14.123 10.41,14.003 L10.409,14.006 C10.565,13.547 10.747,13.079 10.96,12.612 C11,12.601 11.041,12.591 11.081,12.581 C12.624,12.19 13.938,11.962 15.153,11.638 C15.97,11.418 16.791,11.152 17.701,10.862 C18.16,10.717 18.643,10.566 19.156,10.422 C19.195,10.411 19.235,10.4 19.275,10.389 C19.798,10.764 20.279,11.165 20.723,11.572 C20.322,11.661 19.934,11.761 19.562,11.866 C19.076,12.002 18.609,12.148 18.156,12.292 C17.251,12.58 16.409,12.853 15.541,13.087 C14.234,13.434 12.927,13.659 11.45,14.035 C11.073,14.13 10.687,14.237 10.295,14.36 M29.912,13.091 L29.905,13.086 C29.906,13.086 29.906,13.087 29.906,13.087 L29.912,13.091 M27.937,11.994 C26.829,11.541 25.66,11.3 24.533,11.232 C24.293,11.218 24.055,11.211 23.82,11.211 L23.818,11.211 C23.393,11.211 22.976,11.233 22.569,11.273 C22.144,10.84 21.675,10.393 21.157,9.956 C21.989,9.808 22.881,9.711 23.82,9.711 C24.084,9.711 24.352,9.718 24.623,9.735 C25.368,9.78 26.13,9.891 26.889,10.079 C27.256,10.6 27.569,11.155 27.825,11.728 L27.826,11.731 C27.864,11.819 27.901,11.906 27.937,11.994" id="Fill-9" fill="#7598A1"></path>
            <path d="M14.691,34.038 C14.172,33.6 13.703,33.153 13.278,32.72 C13.919,32.657 14.536,32.552 15.125,32.422 C15.569,32.829 16.05,33.23 16.574,33.606 C15.988,33.767 15.358,33.919 14.691,34.038 M31.64,27.842 C31.667,27.559 31.68,27.277 31.68,26.994 C31.68,26.548 31.647,26.103 31.587,25.664 C32.031,25.094 32.418,24.472 32.723,23.807 C32.932,24.537 33.076,25.3 33.141,26.082 C32.694,26.726 32.186,27.314 31.64,27.842 M3.125,20.186 C2.916,19.456 2.772,18.692 2.707,17.91 C3.154,17.266 3.661,16.678 4.208,16.15 C4.181,16.431 4.169,16.713 4.169,16.994 C4.168,17.442 4.201,17.888 4.261,18.328 C3.817,18.898 3.43,19.52 3.125,20.186 M20.723,11.572 C20.279,11.165 19.798,10.764 19.275,10.389 C19.86,10.227 20.489,10.075 21.157,9.956 C21.675,10.393 22.144,10.84 22.569,11.273 C21.928,11.336 21.311,11.442 20.723,11.572" id="Fill-10" fill="#767A78"></path>
            <path d="M8.96,33.914 C8.312,33.753 7.667,33.536 7.036,33.256 C6.948,33.217 6.861,33.177 6.774,33.136 C6.733,33.049 6.693,32.962 6.654,32.875 C6.373,32.243 6.156,31.595 5.996,30.945 C6.514,31.315 7.069,31.63 7.644,31.885 C7.732,31.924 7.822,31.962 7.911,31.999 C7.948,32.088 7.986,32.178 8.025,32.266 C8.279,32.838 8.592,33.393 8.96,33.914 M24.89,31.38 C25.102,30.914 25.282,30.447 25.436,29.99 L25.437,29.987 C25.477,29.869 25.516,29.751 25.553,29.634 C25.67,29.597 25.788,29.559 25.906,29.519 C26.365,29.364 26.834,29.183 27.302,28.971 C27.178,29.452 27.033,29.953 26.857,30.47 C26.818,30.585 26.778,30.701 26.735,30.818 C26.618,30.86 26.502,30.901 26.386,30.94 C25.874,31.113 25.371,31.257 24.89,31.38 M8.548,15.021 C8.672,14.54 8.816,14.039 8.988,13.526 L8.989,13.523 C9.028,13.408 9.069,13.292 9.111,13.176 C9.228,13.133 9.345,13.093 9.46,13.054 C9.976,12.88 10.479,12.736 10.96,12.612 C10.747,13.079 10.565,13.547 10.409,14.006 L10.41,14.003 C10.37,14.123 10.332,14.242 10.295,14.36 C10.177,14.397 10.058,14.435 9.939,14.475 C9.482,14.63 9.015,14.81 8.548,15.021 M29.851,13.047 C29.334,12.678 28.778,12.364 28.205,12.108 C28.116,12.069 28.027,12.031 27.937,11.994 C27.901,11.906 27.864,11.819 27.826,11.731 L27.825,11.728 C27.569,11.155 27.256,10.6 26.889,10.079 C27.537,10.24 28.183,10.457 28.815,10.738 C28.902,10.777 28.989,10.817 29.075,10.858 C29.116,10.944 29.156,11.031 29.195,11.118 L29.196,11.12 C29.474,11.752 29.691,12.399 29.851,13.047" id="Fill-11" fill="#407B85"></path>
        </g>
    </g>
</svg>