<svg xmlns="http://www.w3.org/2000/svg" viewBox="0 0 336 211"><defs><style>.cls-1,.cls-2{fill:#0961ad;stroke-linecap:round;stroke-linejoin:round;}.cls-1{stroke:#fff;stroke-width:5px;}.cls-2{stroke:#0961ad;}</style></defs><title>Artboard 1</title><g id="Layer_2" data-name="Layer 2"><path class="cls-1" d="M178.24 71.12a13.67 13.67 0 0 0 3.6-.44 8.48 8.48 0 0 0 1.06-.37c-.23 1-.49 2.28-.76 3.7a71.13 71.13 0 0 0-1.37 12.4 18.05 18.05 0 0 0 1 6.76 5.73 5.73 0 0 0 1.67 2.32 4.33 4.33 0 0 0 2.74.92 5.45 5.45 0 0 0 2-.38 7.13 7.13 0 0 0 3-2.36 21.14 21.14 0 0 0 3.25-7.29 77 77 0 0 0 2.13-13.81c.16-2.09.25-4 .31-5.7a20.67 20.67 0 0 0 3.69 3.7c2.12 1.72 4.24 3.38 6.28 5.12-1.37 1.19-2.83 2.4-4.12 3.77a14.35 14.35 0 0 0-2.48 3.45 9.74 9.74 0 0 0-1 4.37 11.15 11.15 0 0 0 .16 1.83 8.35 8.35 0 0 0 3.15 5.39 9 9 0 0 0 5.45 1.8 8.72 8.72 0 0 0 5.39-1.8 8.12 8.12 0 0 0 3-5.43 9.08 9.08 0 0 0 .08-1.21 13.2 13.2 0 0 0-1.69-6.08 19.84 19.84 0 0 0-3.66-4.86c-.43-.42-.87-.83-1.32-1.23l.73-.71A14.23 14.23 0 0 0 213 71.7a8.67 8.67 0 0 0 1-4.1 9.46 9.46 0 0 0-.1-1.39 1 1 0 1 0-1.92.28 7.53 7.53 0 0 1 .08 1.1 6.58 6.58 0 0 1-.48 2.49 11.56 11.56 0 0 1-2.74 3.79l-.55.52c-2.15-1.84-4.36-3.56-6.51-5.32a18.61 18.61 0 0 1-3.4-3.41 7 7 0 0 1-1.45-4.1v-.06a1 1 0 0 0-1.89-.3.91.91 0 0 0 0 .3v1.09A119.68 119.68 0 0 1 193.62 81a35.29 35.29 0 0 1-2.82 9.68 9.12 9.12 0 0 1-2.11 2.86 4.25 4.25 0 0 1-1.17.72 3.5 3.5 0 0 1-1.28.24 2.37 2.37 0 0 1-1.54-.5 3.36 3.36 0 0 1-.85-1.05 8.87 8.87 0 0 1-.85-2.75 23.4 23.4 0 0 1-.27-3.76 69.35 69.35 0 0 1 1.34-12c.34-1.79.67-3.33.93-4.42.13-.55.23-1 .3-1.28l.08-.34v-.11a1 1 0 0 0-1.71-.83 3.32 3.32 0 0 1-1 .86 6.6 6.6 0 0 1-2.15.74 13 13 0 0 1-2.3.19 34 34 0 0 0 .73-6.66 14.07 14.07 0 0 0-1.27-6.46 5.58 5.58 0 0 0-1.8-2.13 4.68 4.68 0 0 0-2.65-.78 4.12 4.12 0 0 0-2.39.76 6.43 6.43 0 0 0-2.2 3.07 12 12 0 0 0-.71 4.16 11.62 11.62 0 0 0 1.88 6.55 7.29 7.29 0 0 0 6 3.23c-.13.5-.27 1-.42 1.52a41.55 41.55 0 0 1-8 15.14 22.42 22.42 0 0 1-6.09 5 14.94 14.94 0 0 1-7.21 1.89 9.31 9.31 0 0 1-4.77-1.23 11.4 11.4 0 0 1-4.59-5.58 21.61 21.61 0 0 1-1.56-8.33v-1.25a20.61 20.61 0 0 0 5.14.6 25.18 25.18 0 0 0 4.12-.34 12.42 12.42 0 0 0 7.59-4.15 10.63 10.63 0 0 0 2.58-6.77 7.4 7.4 0 0 0-1.86-5.08 6.54 6.54 0 0 0-2.35-1.62 8.41 8.41 0 0 0-3.19-.58 11.47 11.47 0 0 0-6.12 1.79 15.75 15.75 0 0 0-5.9 7.39 26.21 26.21 0 0 0-2 10.05c0 .81 0 1.62.12 2.42a17.64 17.64 0 0 0-5.43-4c-.47-.23-.94-.41-1.39-.59a25.86 25.86 0 0 0-3.22-10.16 14.72 14.72 0 0 0-4.26-4.75 10.47 10.47 0 0 0-6-1.86 9.63 9.63 0 0 0-4.4 1.13 14.71 14.71 0 0 0-4.15 3.37v-3.57a1 1 0 1 0-1.94 0v6.31a1 1 0 0 0 0 .37l.07 24v.07a3 3 0 0 1-.9 1.13 5.48 5.48 0 0 1-3.6 1.07 4.56 4.56 0 0 1-3-1 5.29 5.29 0 0 1-1.32-1.66 10 10 0 0 1-1-3 13.19 13.19 0 0 1-.17-2V61.47a1 1 0 0 0-1.94 0v3.4c-.24-.28-.5-.57-.79-.87a12.6 12.6 0 0 0-3.24-2.39A10.12 10.12 0 0 0 90 60.5a11 11 0 0 0-5.79 1.6 14.21 14.21 0 0 0-5.5 6.81 24.57 24.57 0 0 0-1.78 9.39 23 23 0 0 0 3.19 12.16 12.89 12.89 0 0 0 4.11 4.15 11 11 0 0 0 5.83 1.6 9.6 9.6 0 0 0 5.18-1.46 11.79 11.79 0 0 0 3.9-4.26 11.77 11.77 0 0 0 .44 1.31 7.68 7.68 0 0 0 2.2 3.09A6.51 6.51 0 0 0 106 96.3a8.69 8.69 0 0 0 3.05-.51 6.28 6.28 0 0 0 1.48-.79l.06 20.38a1 1 0 1 0 1.94 0l-.14-47.22a16.19 16.19 0 0 1 2.33-2.83 11.81 11.81 0 0 1 2.75-2 7.67 7.67 0 0 1 3.47-.89h.06a8.52 8.52 0 0 1 5 1.56 14.78 14.78 0 0 1 5 6.88 25.61 25.61 0 0 1 1.5 5.75l-.45-.11a14 14 0 0 0-2.95-.36 13.07 13.07 0 0 0-9.87 3.84 11.84 11.84 0 0 0-3.16 8.06 9.6 9.6 0 0 0 1.85 5.87 6.81 6.81 0 0 0 2.32 1.93 6.94 6.94 0 0 0 3.15.72 9.62 9.62 0 0 0 5.12-1.4 12.14 12.14 0 0 0 4.74-6.08 23.67 23.67 0 0 0 1.48-8.56v-1.15a16 16 0 0 1 2.27 1.24 15.76 15.76 0 0 1 5.12 5.47l.09.12a17.86 17.86 0 0 0 2.16 4.86 12.18 12.18 0 0 0 4 3.92 11.26 11.26 0 0 0 5.75 1.49 17.61 17.61 0 0 0 10.52-3.65c4.59-3.38 8.14-8.63 10.57-14.19a48.38 48.38 0 0 0 2.58-7.54zm31.49 7.19a17.92 17.92 0 0 1 3.27 4.37 11.29 11.29 0 0 1 1.46 5.17 7.15 7.15 0 0 1-.06 1 6.16 6.16 0 0 1-2.25 4.15 6.79 6.79 0 0 1-4.15 1.35 7 7 0 0 1-4.3-1.35 6.4 6.4 0 0 1-2.42-4.16 9.21 9.21 0 0 1-.13-1.51 7.73 7.73 0 0 1 .49-2.74 11.79 11.79 0 0 1 2.75-4c1.18-1.21 2.56-2.35 3.92-3.54.48.37.96.81 1.42 1.26zM96.84 90.59a9.18 9.18 0 0 1-2.63 2.55 7.65 7.65 0 0 1-4.09 1.13 9.09 9.09 0 0 1-4.82-1.32A12.33 12.33 0 0 1 80.51 87a22.93 22.93 0 0 1-1.63-8.7 20.89 20.89 0 0 1 2.88-11 10.93 10.93 0 0 1 3.47-3.51A9.08 9.08 0 0 1 90 62.44a8.17 8.17 0 0 1 3.73.9 11.49 11.49 0 0 1 3.71 3.13 13.6 13.6 0 0 1 .94 1.34l.23.4v18.53a13.24 13.24 0 0 1-1.77 3.85zm36-10a19.47 19.47 0 0 1-2.39 10 9 9 0 0 1-2.91 3 7.66 7.66 0 0 1-4.1 1.11 5 5 0 0 1-2.28-.52 5.2 5.2 0 0 1-2.27-2.36 8.27 8.27 0 0 1-.83-3.71 9.91 9.91 0 0 1 2.63-6.73c1.79-1.9 4.5-3.24 8.45-3.25a12.12 12.12 0 0 1 2.53.31c.35.08.71.17 1.09.29 0 .57.03 1.2.03 1.82zm17.33-16.93a9.52 9.52 0 0 1 5.11-1.46 6.48 6.48 0 0 1 2.45.44 4.53 4.53 0 0 1 2.24 1.91 5.83 5.83 0 0 1 .76 3 8.7 8.7 0 0 1-2.14 5.45 10.47 10.47 0 0 1-6.42 3.49 23.24 23.24 0 0 1-3.81.32 20.29 20.29 0 0 1-3.66-.32c-.43-.08-.76-.16-1-.22l-.24-.07h-.05a21.38 21.38 0 0 1 3-8.71 12.26 12.26 0 0 1 3.7-3.87zm26.12 5.43h-.17a5.65 5.65 0 0 1-2.76-.66 6.08 6.08 0 0 1-2.56-2.93 10.5 10.5 0 0 1-.86-4.25 9.13 9.13 0 0 1 1-4.39 3.76 3.76 0 0 1 1.06-1.3 2.17 2.17 0 0 1 1.28-.41 2.73 2.73 0 0 1 1.57.45 3.32 3.32 0 0 1 .9.93 7.2 7.2 0 0 1 1 2.45 16.62 16.62 0 0 1 .34 3.53 32.39 32.39 0 0 1-.75 6.54zm-11.73 91.49a1 1 0 0 0-1.28.5 17.57 17.57 0 0 1-2.92 4.27 13.61 13.61 0 0 1-3.54 2.79 10.39 10.39 0 0 1-4.91 1.25 9.3 9.3 0 0 1-4.75-1.22 11.33 11.33 0 0 1-4.57-5.54 21.42 21.42 0 0 1-1.56-8.28v-1.34a20.62 20.62 0 0 0 5.14.6 25.18 25.18 0 0 0 4.12-.34 12.48 12.48 0 0 0 7.58-4.12 10.47 10.47 0 0 0 2.59-6.71 7.28 7.28 0 0 0-1.86-5 6.54 6.54 0 0 0-2.35-1.6 8.49 8.49 0 0 0-3.18-.57 11.5 11.5 0 0 0-6.14 1.75 15.71 15.71 0 0 0-5.9 7.36 26 26 0 0 0-2 10v.73a4 4 0 0 1-.73-.3 8.84 8.84 0 0 1-2.81-2.75 28.8 28.8 0 0 1-3.07-6.07c-.36-.94-.63-1.75-.81-2.34l-.21-.68-.05-.18a1 1 0 0 0-1.9.14v.3a121.07 121.07 0 0 1-2.73 14.46 39.6 39.6 0 0 1-3 8.35 9.6 9.6 0 0 1-1.82 2.5 3.43 3.43 0 0 1-.88.6 2 2 0 0 1-.81.19 2.05 2.05 0 0 1-1-.26 6 6 0 0 1-2-2.14 31.39 31.39 0 0 1-3.21-8.03 120.08 120.08 0 0 1-2.89-14.73c-.3-2.18-.53-4.06-.67-5.39-.07-.67-.13-1.19-.16-1.56v-.55a1 1 0 1 0-1.93.17s.21 2.37.66 5.83a22.8 22.8 0 0 1-6.38 6 27.82 27.82 0 0 0-1.77-5.64 18.2 18.2 0 0 0-3.84-5.73 10.68 10.68 0 0 0-2.9-2 8.46 8.46 0 0 0-3.59-.8 12 12 0 0 0-4.19.71A8.11 8.11 0 0 0 81 141a13.81 13.81 0 0 0-4.94 5.6 17.57 17.57 0 0 0-1.72 7.72 19.48 19.48 0 0 0 1.76 8.1 15.69 15.69 0 0 0 5.17 6.34 13.29 13.29 0 0 0 7.73 2.42 13.64 13.64 0 0 0 7.4-2.19 13.47 13.47 0 0 0 5.11-6.12 22.56 22.56 0 0 0 1.65-8.7 27.38 27.38 0 0 0-.23-3.44 24.72 24.72 0 0 0 5.16-4c.49-.49.9-1 1.25-1.37.37 2.54.85 5.43 1.44 8.32a60.29 60.29 0 0 0 3.43 11.7 15 15 0 0 0 2.48 4.05 6 6 0 0 0 1.58 1.26 4 4 0 0 0 1.89.49 3.93 3.93 0 0 0 1.71-.41 7 7 0 0 0 2.54-2.33 26.51 26.51 0 0 0 3.18-6.94 93.12 93.12 0 0 0 2.89-12.23c.13-.77.25-1.49.36-2.15.36.91.78 1.89 1.28 2.89a19.9 19.9 0 0 0 3.18 4.79 8.66 8.66 0 0 0 2.14 1.69 5.66 5.66 0 0 0 1.78.61 20 20 0 0 0 2.92 8.86 12.13 12.13 0 0 0 4 3.9 11.25 11.25 0 0 0 5.73 1.48 12.34 12.34 0 0 0 5.9-1.52 16.8 16.8 0 0 0 5.47-5 18 18 0 0 0 1.78-3 1 1 0 0 0-.46-1.24zm-80-22.11a6.65 6.65 0 0 1 2.37-1.47 10 10 0 0 1 3.51-.59 6.51 6.51 0 0 1 2.77.62 9.77 9.77 0 0 1 3.4 2.79 17.8 17.8 0 0 1 2.38 4 26 26 0 0 1 1.76 5.86c-.39.2-.8.38-1.22.56a18.59 18.59 0 0 1-7.1 1.42 9.92 9.92 0 0 1-7.24-2.75 8.29 8.29 0 0 1-2.45-5.79 7.28 7.28 0 0 1 .09-1.1 1 1 0 0 0 .1-.52 6.15 6.15 0 0 1 1.63-3.02zm16.62 15.69a20.63 20.63 0 0 1-1.5 7.95 11.52 11.52 0 0 1-4.38 5.24 11.7 11.7 0 0 1-6.3 1.89 11.35 11.35 0 0 1-6.55-2.08 13.75 13.75 0 0 1-4.52-5.56 17.54 17.54 0 0 1-1.58-7.29 15.64 15.64 0 0 1 1.52-6.86 12.09 12.09 0 0 1 3-3.87 10.25 10.25 0 0 0 3 6.69 11.87 11.87 0 0 0 8.62 3.33 20.54 20.54 0 0 0 7.89-1.59l.71-.32c.04.81.09 1.65.09 2.48zm46.74-15.56a9.54 9.54 0 0 1 5.11-1.45 6.55 6.55 0 0 1 2.46.43 4.52 4.52 0 0 1 2.24 1.89 5.7 5.7 0 0 1 .76 2.95 8.54 8.54 0 0 1-2.12 5.45 10.53 10.53 0 0 1-6.43 3.47 23.24 23.24 0 0 1-3.81.32 20.29 20.29 0 0 1-3.66-.32c-.43-.08-.76-.16-1-.22l-.24-.07h-.05a21.19 21.19 0 0 1 2.94-8.56 12.24 12.24 0 0 1 3.8-3.88zm-57.49-4.14zm145.29 0zm-127.44 2.37z"/><path class="cls-1" d="M133.11 178.88a44 44 0 0 1-7.69 4 49.35 49.35 0 0 1-18.72 3.92h-.12a40.68 40.68 0 0 1-17-3.87c-7.73-3.5-14.46-8.79-21.06-13.28a64.39 64.39 0 0 0-9.94-5.76q-1.29-.57-2.61-1a158 158 0 0 0 3.18-15.62c.56-3.58 1-7 1.43-10.15 7.1-.23 12.34-2.77 15.79-6.32a18.61 18.61 0 0 0 5.27-12.8 13.21 13.21 0 0 0-2.33-7.85 8.57 8.57 0 0 0-2.9-2.52 8.37 8.37 0 0 0-3.93-.94 10.25 10.25 0 0 0-4.15.8 8.65 8.65 0 0 0-2.81 2 15.31 15.31 0 0 0-3.21 5.81 76.19 76.19 0 0 0-2.63 13.4c-.28 2.07-.55 4.26-.84 6.56A49.36 49.36 0 0 1 34.19 128a52.4 52.4 0 0 1-6.93-4.94c-.79-.67-1.4-1.23-1.8-1.62L25 121l-.11-.11a1 1 0 1 0-1.42 1.33 48.23 48.23 0 0 0 9.75 7.48 51.34 51.34 0 0 0 25.4 7.43c-.4 3.1-.85 6.38-1.39 9.85a156.1 156.1 0 0 1-3.12 15.36 23.11 23.11 0 0 0-6-.83H48c-8.09 0-14 2.33-17.87 5.66a15.48 15.48 0 0 0-5.72 11.58 10.49 10.49 0 0 0 2.59 7.1 8.88 8.88 0 0 0 3.11 2.22 10.46 10.46 0 0 0 4.15.81 15.56 15.56 0 0 0 10-3.61 24.89 24.89 0 0 0 5.5-6.59 58.29 58.29 0 0 0 5.67-13.89A36.94 36.94 0 0 1 61 167.3c6.39 3.49 12.84 8.83 20.15 13.33s15.54 8.16 25.48 8.16h.12a51.35 51.35 0 0 0 19.69-4.17 45.19 45.19 0 0 0 7.84-4.16 1 1 0 1 0-1.12-1.58zm-70.32-57.56a42.1 42.1 0 0 1 1.41-5.6 12.35 12.35 0 0 1 3.15-5.36 6.57 6.57 0 0 1 2.21-1.31 8.69 8.69 0 0 1 2.92-.46 6.42 6.42 0 0 1 3 .72 7.18 7.18 0 0 1 3.07 3.34A12.3 12.3 0 0 1 79.7 118a16.68 16.68 0 0 1-4.7 11.46c-3 3.12-7.64 5.43-14.15 5.72.18-1.44.36-2.84.53-4.18.42-3.61.87-6.86 1.41-9.68zm-13.26 53.74a25.89 25.89 0 0 1-6.5 8.71 13.59 13.59 0 0 1-8.79 3.18 8.52 8.52 0 0 1-3.39-.65 7 7 0 0 1-3.31-2.94 9 9 0 0 1-1.17-4.59 13.55 13.55 0 0 1 5-10.11c3.48-3 8.88-5.17 16.61-5.2h.06a21.16 21.16 0 0 1 5.51.76 63.6 63.6 0 0 1-4.02 10.84zm246.14-65.92zm16.41 28.61a1 1 0 1 0-1.94 0v.1a20.12 20.12 0 0 1-1.54 8.37 11.36 11.36 0 0 1-2.54 3.62 11.09 11.09 0 0 1-4.6 2.57 13.88 13.88 0 0 1-3.77.53h-.94a1 1 0 0 0-.92 1.51 39.94 39.94 0 0 1 6.82 22 23.64 23.64 0 0 1-1.85 9.88 8 8 0 0 1-2 2.71 3.45 3.45 0 0 1-2.24.88 3.4 3.4 0 0 1-1.78-.48 4.77 4.77 0 0 1-1.3-1.18 11.61 11.61 0 0 1-1.76-3.56 34.13 34.13 0 0 1-1.33-7c-.23-2.35-.28-4.5-.28-5.91V170l-.1-32.8h.76a11.16 11.16 0 0 0 5.46-1.36 10.28 10.28 0 0 0 2.92-2.47 14.09 14.09 0 0 0 2.57-5.12 21.68 21.68 0 0 0 .77-5.87 22.08 22.08 0 0 0-1.77-8.92 9.71 9.71 0 0 0-2.1-3.07 5.18 5.18 0 0 0-1.39-.95 4 4 0 0 0-1.63-.36 5.23 5.23 0 0 0-2.42.58 5.88 5.88 0 0 0-1.65 1.3 10.42 10.42 0 0 0-1.91 3.35 26.8 26.8 0 0 0-1.35 6.24 54.09 54.09 0 0 0-.3 5.88c0 1.94.09 3.31.11 3.54v5.09a14 14 0 0 1-4.07-1.27c-2.76-1.34-5-3.5-7.42-5.73a26.62 26.62 0 0 0-9-5.88 18.92 18.92 0 0 0-15.9 1.32 17.85 17.85 0 0 0-3.56 2.52 1 1 0 0 0 1.35 1.39 16.27 16.27 0 0 1 3.24-2.26 17 17 0 0 1 14.28-1.09 20.64 20.64 0 0 1 5.91 3.37c2.58 2 4.77 4.44 7.45 6.4a18 18 0 0 0 4.52 2.45 16.15 16.15 0 0 0 3.3.8l.07 24.94a19.27 19.27 0 0 1-1.93 3.65 10.41 10.41 0 0 1-2.21 2.42 4.47 4.47 0 0 1-2.69 1 4.16 4.16 0 0 1-1.5-.26 3.93 3.93 0 0 1-1.8-1.45 9.51 9.51 0 0 1-1.42-3.76 19.67 19.67 0 0 1-.3-3.44v-12.16a17.14 17.14 0 0 0-1.42-6.31 11.15 11.15 0 0 0-3.45-4.44 10.9 10.9 0 0 0-6.69-2 9.75 9.75 0 0 0-4.39 1.09 14.63 14.63 0 0 0-4.18 3.3v-3.27a1 1 0 1 0-1.94 0v6.35a22.8 22.8 0 0 1-6.37 6 27.83 27.83 0 0 0-1.77-5.64 18.2 18.2 0 0 0-3.84-5.73 10.68 10.68 0 0 0-2.9-2 8.46 8.46 0 0 0-3.59-.8 12 12 0 0 0-4.19.71 8.11 8.11 0 0 0-5.22 5.82 13.81 13.81 0 0 0-4.94 5.6 17.57 17.57 0 0 0-1.72 7.72 19.74 19.74 0 0 0 .54 4.53 24.74 24.74 0 0 1-5.88 6.72 18.47 18.47 0 0 1-8.21 3.7 20.6 20.6 0 0 1-3.53.31 20.07 20.07 0 0 1-12.14-4.15 26.34 26.34 0 0 1-8.17-10.56 33.11 33.11 0 0 1-2.67-13.29 41.82 41.82 0 0 1 4.26-18.07 28.43 28.43 0 0 1 8.38-10.43 20.45 20.45 0 0 1 12.38-4.19 10.19 10.19 0 0 1 4.59 1.06 10.39 10.39 0 0 1 2.3 1.57h-.11a9.33 9.33 0 0 0-4.41 3.87 10.15 10.15 0 0 0-1.38 5.11 8 8 0 0 0 1.32 4.6 5.14 5.14 0 0 0 1.69 1.55 4.74 4.74 0 0 0 2.33.59 6.84 6.84 0 0 0 2.85-.57 5.76 5.76 0 0 0 2.77-2.69 8.55 8.55 0 0 0 .86-3.89 13 13 0 0 0-.85-4.5 14.54 14.54 0 0 0-1.54-3c.34 0 .68 0 1-.05a11.09 11.09 0 0 1 5.94 1.72 10.88 10.88 0 0 1 1.55 1.18c.17.16.3.29.38.37l.09.1a1 1 0 1 0 1.49-1.25 11.35 11.35 0 0 0-2.49-2.06 13 13 0 0 0-7-2 13.16 13.16 0 0 0-2.44.23 13.1 13.1 0 0 0-1.36-1.27 12.06 12.06 0 0 0-7.66-2.67 22.41 22.41 0 0 0-13.54 4.57 30.36 30.36 0 0 0-9 11.14 43.75 43.75 0 0 0-4.46 18.92 35 35 0 0 0 2.83 14.07 28.27 28.27 0 0 0 8.79 11.31 22 22 0 0 0 13.3 4.54 22.54 22.54 0 0 0 3.86-.34 20.41 20.41 0 0 0 9.06-4.08 26 26 0 0 0 5.43-5.83c.15.39.31.77.48 1.15a15.69 15.69 0 0 0 5.17 6.34 13.29 13.29 0 0 0 7.66 2.43 13.64 13.64 0 0 0 7.4-2.19 13.47 13.47 0 0 0 5.11-6.12 22.56 22.56 0 0 0 1.65-8.7 27.38 27.38 0 0 0-.23-3.44 24.72 24.72 0 0 0 5.16-4c.32-.33.62-.64.88-.94l.07 24.47a1 1 0 1 0 1.94 0l-.08-27.5a15.82 15.82 0 0 1 2.35-2.78 11.75 11.75 0 0 1 2.75-2 7.79 7.79 0 0 1 3.47-.86 9 9 0 0 1 5.53 1.65 8.7 8.7 0 0 1 2.32 2.67 13.79 13.79 0 0 1 1.54 4.42c.11.63.17 1.17.2 1.55v12.73a18.69 18.69 0 0 0 1 6.23 7.92 7.92 0 0 0 2.07 3.19 5.56 5.56 0 0 0 1.72 1 6.11 6.11 0 0 0 2.19.38 6.43 6.43 0 0 0 3.9-1.44 13 13 0 0 0 2.93-3.35v5.55a53.37 53.37 0 0 0 1.18 11.65 16.57 16.57 0 0 0 2.39 5.75 6.91 6.91 0 0 0 2 1.94 5.36 5.36 0 0 0 2.77.75 5.4 5.4 0 0 0 3.48-1.33 11.83 11.83 0 0 0 3.34-5.61 28.69 28.69 0 0 0 1.16-8.47 42 42 0 0 0-6.16-21.59 15.88 15.88 0 0 0 3-.43A13.89 13.89 0 0 0 305 153a12.65 12.65 0 0 0 4.94-5.14 21.07 21.07 0 0 0 2.13-10zm-22-7.75v-.13c0-.28-.1-1.58-.1-3.38a40.49 40.49 0 0 1 1.1-10.06 10.73 10.73 0 0 1 1.83-3.93 4.08 4.08 0 0 1 1.25-1 3.28 3.28 0 0 1 1.53-.37 2 2 0 0 1 .84.19 4.11 4.11 0 0 1 1.47 1.28 12.52 12.52 0 0 1 1.88 4.19 22.13 22.13 0 0 1 .72 5.65 16.54 16.54 0 0 1-2.28 8.91 8.64 8.64 0 0 1-3 2.86 9.22 9.22 0 0 1-4.52 1.11h-.75zm-76.22-15.6a11.72 11.72 0 0 1 1.63 5.73 5.94 5.94 0 0 1-1.12 3.75 3.68 3.68 0 0 1-1.36 1.05 4.9 4.9 0 0 1-2 .4 2.79 2.79 0 0 1-1.38-.35 3.58 3.58 0 0 1-1.46-1.68 6.67 6.67 0 0 1-.56-2.77 8.06 8.06 0 0 1 2-5.34 7.42 7.42 0 0 1 2.62-1.86c.25-.11.51-.2.78-.29a12.29 12.29 0 0 1 .85 1.36zm16 24.08a6.65 6.65 0 0 1 2.37-1.49 10 10 0 0 1 3.51-.59 6.51 6.51 0 0 1 2.77.62 9.77 9.77 0 0 1 3.4 2.79 17.8 17.8 0 0 1 2.38 4 26 26 0 0 1 1.76 5.86c-.39.2-.8.38-1.22.56a18.59 18.59 0 0 1-7.1 1.42 9.92 9.92 0 0 1-7.24-2.75 8.29 8.29 0 0 1-2.49-5.8 7.28 7.28 0 0 1 .09-1.1 1 1 0 0 0 .1-.52 6.15 6.15 0 0 1 1.66-3zm16.62 15.69a20.63 20.63 0 0 1-1.5 7.95 11.52 11.52 0 0 1-4.38 5.24 11.7 11.7 0 0 1-6.35 1.88 11.35 11.35 0 0 1-6.55-2.08 13.75 13.75 0 0 1-4.52-5.56 17.54 17.54 0 0 1-1.58-7.29 15.64 15.64 0 0 1 1.52-6.86 12.09 12.09 0 0 1 3-3.87 10.25 10.25 0 0 0 3 6.69 11.87 11.87 0 0 0 8.62 3.33 20.54 20.54 0 0 0 7.89-1.59l.71-.32c.09.81.13 1.65.13 2.48zM33 30.71a31.51 31.51 0 0 1 19.12-6.83 23.94 23.94 0 0 1 10.35 2.26 22.28 22.28 0 0 1 8.51 7.18 29 29 0 0 1 5.2 16.91 30.58 30.58 0 0 1-3.26 13.87 24.2 24.2 0 0 1-9.62 10.19 18.68 18.68 0 0 1-9.08 2.45 15.85 15.85 0 0 1-3.51-.39l-.63-.17L50 53a11.12 11.12 0 0 1 2.15-.21A10.36 10.36 0 0 1 59 55.34a1 1 0 0 0 1.27-1.47 12.31 12.31 0 0 0-8.15-3.06A13.09 13.09 0 0 0 50 51V35.75a1 1 0 1 0-1.94 0v15.71a14.54 14.54 0 0 0-5.86 3.63 12.73 12.73 0 0 0-3.87 9A13.91 13.91 0 0 0 41.67 73a15.74 15.74 0 0 0 6.45 4.57L48.17 95a1 1 0 1 0 1.94 0l-.05-16.85.2.05a17.79 17.79 0 0 0 3.94.43 20.61 20.61 0 0 0 10-2.7 26.14 26.14 0 0 0 10.4-11 32.51 32.51 0 0 0 3.47-14.76 30.9 30.9 0 0 0-5.57-18 24.23 24.23 0 0 0-9.25-7.79 25.88 25.88 0 0 0-11.19-2.45 33.44 33.44 0 0 0-20.32 7.24 44.61 44.61 0 0 0-11.51 13.46 1 1 0 0 0 1.71.93A42.68 42.68 0 0 1 33 30.71zm10.16 41.05a12 12 0 0 1-2.91-7.62 10.78 10.78 0 0 1 3.31-7.68A12.66 12.66 0 0 1 48 53.53l.07 22a13.79 13.79 0 0 1-4.91-3.77zm243.93-2.35a25.43 25.43 0 0 0-2 9.9 21 21 0 0 0 3.08 11.47 12.06 12.06 0 0 0 4 3.85 11.36 11.36 0 0 0 5.83 1.46 13.15 13.15 0 0 0 6-1.51 19.22 19.22 0 0 0 5.9-4.93 20.43 20.43 0 0 0 2.05-3 1 1 0 0 0-1.71-.92A20.21 20.21 0 0 1 307 90a15.86 15.86 0 0 1-3.86 2.85 11.19 11.19 0 0 1-5.1 1.27 9.41 9.41 0 0 1-4.76-1.21 11.21 11.21 0 0 1-4.57-5.47 20.89 20.89 0 0 1-1.55-8.16v-1.55a20.65 20.65 0 0 0 5.13.6 25.18 25.18 0 0 0 4.12-.34A12.65 12.65 0 0 0 304 74a10.07 10.07 0 0 0 2.59-6.55 7 7 0 0 0-1.87-4.92 6.55 6.55 0 0 0-2.39-1.53 8.69 8.69 0 0 0-3.17-.55 11.6 11.6 0 0 0-6.16 1.68 15.56 15.56 0 0 0-5.91 7.28zm6.91-5.62a9.65 9.65 0 0 1 5.12-1.44 6.76 6.76 0 0 1 2.47.42 4.47 4.47 0 0 1 2.23 1.83 5.35 5.35 0 0 1 .75 2.83 8.14 8.14 0 0 1-2.11 5.27 10.71 10.71 0 0 1-6.43 3.4 23.24 23.24 0 0 1-3.81.32 20.28 20.28 0 0 1-3.66-.32c-.43-.08-.76-.16-1-.22l-.24-.07a20.61 20.61 0 0 1 2.9-8.21 12.16 12.16 0 0 1 3.78-3.81zm-87.63-8.1a12.61 12.61 0 0 0 6.82 2 12.75 12.75 0 0 0 8.38-3.12 11.12 11.12 0 0 0 2.72-3.57 10.8 10.8 0 0 0 1-4.64 12.45 12.45 0 0 0-.34-2.84 1 1 0 1 0-1.89.44 10.51 10.51 0 0 1 .29 2.4 8.86 8.86 0 0 1-.84 3.81 9.5 9.5 0 0 1-3.78 4.08 11 11 0 0 1-5.57 1.52 10.67 10.67 0 0 1-5.77-1.69 13 13 0 0 1-4.72-5.3 15.75 15.75 0 0 1-1.53-6.92 19 19 0 0 1 2.51-9.37 15 15 0 0 1 6-5.67 18.08 18.08 0 0 1 8.46-2.12 15.83 15.83 0 0 1 10.38 3.74 18.84 18.84 0 0 1 5.93 9.86 45.55 45.55 0 0 1 1.19 11.44l.1 30.21v.44a23.65 23.65 0 0 0 1.54 8.44 11.75 11.75 0 0 0 3.35 4.74 9.73 9.73 0 0 0 6.32 2.11 9.29 9.29 0 0 0 5.83-2 16.21 16.21 0 0 0 4.67-6.68l.12-.29c.15.51.32 1 .51 1.55a12.45 12.45 0 0 0 3.32 5 9.06 9.06 0 0 0 2.8 1.74 10.32 10.32 0 0 0 3.63.62 10.63 10.63 0 0 0 6.55-2 10.85 10.85 0 0 0 2.89-3.34 17.57 17.57 0 0 0 1.94-5.66 24.33 24.33 0 0 0 .36-4.07v-.6l-.1-29.34v-.12a17 17 0 0 1 1.6-7 10.15 10.15 0 0 1 3.4-4 11.4 11.4 0 0 1 6.56-1.83 1 1 0 1 0 0-1.94 13.34 13.34 0 0 0-7.62 2.1 11.68 11.68 0 0 0-3.38 3.46 16.42 16.42 0 0 0-2.17 5.67 19 19 0 0 0-.36 3.48v.16l.1 29.36v.52a20.14 20.14 0 0 1-1.49 7.68 9.54 9.54 0 0 1-2.9 3.85 8.68 8.68 0 0 1-5.38 1.63 8.38 8.38 0 0 1-2.95-.5 7.53 7.53 0 0 1-3.47-2.7 15.41 15.41 0 0 1-2.43-6.17 24.2 24.2 0 0 1-.41-4.23v-.12l-.1-18.52a1 1 0 1 0-1.94 0l.1 18.51v.18a25.55 25.55 0 0 0 .17 2.72 21.55 21.55 0 0 1-2.19 5.7 12.17 12.17 0 0 1-3 3.65 7.32 7.32 0 0 1-4.58 1.58 7.77 7.77 0 0 1-5.1-1.68 9.05 9.05 0 0 1-2.25-2.84A17 17 0 0 1 238 84a23.89 23.89 0 0 1-.3-3.66V80l-.1-30.23a47.39 47.39 0 0 0-1.25-11.93A20.79 20.79 0 0 0 229.8 27a17.78 17.78 0 0 0-11.64-4.2 20 20 0 0 0-9.38 2.35A17 17 0 0 0 202 31.5a21 21 0 0 0-2.76 10.33 17.68 17.68 0 0 0 1.76 7.78 14.91 14.91 0 0 0 5.37 6.08z"/></g><g id="Layer_1" data-name="Layer 1"><path class="cls-2" d="M178.24 71.12a13.67 13.67 0 0 0 3.6-.44 8.48 8.48 0 0 0 1.06-.37c-.23 1-.49 2.28-.76 3.7a71.13 71.13 0 0 0-1.37 12.4 18.05 18.05 0 0 0 1 6.76 5.73 5.73 0 0 0 1.67 2.32 4.33 4.33 0 0 0 2.74.92 5.45 5.45 0 0 0 2-.38 7.13 7.13 0 0 0 3-2.36 21.14 21.14 0 0 0 3.25-7.29 77 77 0 0 0 2.13-13.81c.16-2.09.25-4 .31-5.7a20.67 20.67 0 0 0 3.69 3.7c2.12 1.72 4.24 3.38 6.28 5.12-1.37 1.19-2.83 2.4-4.12 3.77a14.35 14.35 0 0 0-2.48 3.45 9.74 9.74 0 0 0-1 4.37 11.15 11.15 0 0 0 .16 1.83 8.35 8.35 0 0 0 3.15 5.39 9 9 0 0 0 5.45 1.8 8.72 8.72 0 0 0 5.39-1.8 8.12 8.12 0 0 0 3-5.43 9.08 9.08 0 0 0 .08-1.21 13.2 13.2 0 0 0-1.69-6.08 19.84 19.84 0 0 0-3.66-4.86c-.43-.42-.87-.83-1.32-1.23l.73-.71A14.23 14.23 0 0 0 213 71.7a8.67 8.67 0 0 0 1-4.1 9.46 9.46 0 0 0-.1-1.39 1 1 0 1 0-1.92.28 7.53 7.53 0 0 1 .08 1.1 6.58 6.58 0 0 1-.48 2.49 11.56 11.56 0 0 1-2.74 3.79l-.55.52c-2.15-1.84-4.36-3.56-6.51-5.32a18.61 18.61 0 0 1-3.4-3.41 7 7 0 0 1-1.45-4.1v-.06a1 1 0 0 0-1.89-.3.91.91 0 0 0 0 .3v1.09A119.68 119.68 0 0 1 193.62 81a35.29 35.29 0 0 1-2.82 9.68 9.12 9.12 0 0 1-2.11 2.86 4.25 4.25 0 0 1-1.17.72 3.5 3.5 0 0 1-1.28.24 2.37 2.37 0 0 1-1.54-.5 3.36 3.36 0 0 1-.85-1.05 8.87 8.87 0 0 1-.85-2.75 23.4 23.4 0 0 1-.27-3.76 69.35 69.35 0 0 1 1.34-12c.34-1.79.67-3.33.93-4.42.13-.55.23-1 .3-1.28l.08-.34v-.11a1 1 0 0 0-1.71-.83 3.32 3.32 0 0 1-1 .86 6.6 6.6 0 0 1-2.15.74 13 13 0 0 1-2.3.19 34 34 0 0 0 .73-6.66 14.07 14.07 0 0 0-1.27-6.46 5.58 5.58 0 0 0-1.8-2.13 4.68 4.68 0 0 0-2.65-.78 4.12 4.12 0 0 0-2.39.76 6.43 6.43 0 0 0-2.2 3.07 12 12 0 0 0-.71 4.16 11.62 11.62 0 0 0 1.88 6.55 7.29 7.29 0 0 0 6 3.23c-.13.5-.27 1-.42 1.52a41.55 41.55 0 0 1-8 15.14 22.42 22.42 0 0 1-6.09 5 14.94 14.94 0 0 1-7.21 1.89 9.31 9.31 0 0 1-4.77-1.23 11.4 11.4 0 0 1-4.59-5.58 21.61 21.61 0 0 1-1.56-8.33v-1.25a20.61 20.61 0 0 0 5.14.6 25.18 25.18 0 0 0 4.12-.34 12.42 12.42 0 0 0 7.59-4.15 10.63 10.63 0 0 0 2.58-6.77 7.4 7.4 0 0 0-1.86-5.08 6.54 6.54 0 0 0-2.35-1.62 8.41 8.41 0 0 0-3.19-.58 11.47 11.47 0 0 0-6.12 1.79 15.75 15.75 0 0 0-5.9 7.39 26.21 26.21 0 0 0-2 10.05c0 .81 0 1.62.12 2.42a17.64 17.64 0 0 0-5.43-4c-.47-.23-.94-.41-1.39-.59a25.86 25.86 0 0 0-3.22-10.16 14.72 14.72 0 0 0-4.26-4.75 10.47 10.47 0 0 0-6-1.86 9.63 9.63 0 0 0-4.4 1.13 14.71 14.71 0 0 0-4.15 3.37v-3.57a1 1 0 1 0-1.94 0v6.31a1 1 0 0 0 0 .37l.07 24v.07a3 3 0 0 1-.9 1.13 5.48 5.48 0 0 1-3.6 1.07 4.56 4.56 0 0 1-3-1 5.29 5.29 0 0 1-1.32-1.66 10 10 0 0 1-1-3 13.19 13.19 0 0 1-.17-2V61.47a1 1 0 0 0-1.94 0v3.4c-.24-.28-.5-.57-.79-.87a12.6 12.6 0 0 0-3.24-2.39A10.12 10.12 0 0 0 90 60.5a11 11 0 0 0-5.79 1.6 14.21 14.21 0 0 0-5.5 6.81 24.57 24.57 0 0 0-1.78 9.39 23 23 0 0 0 3.19 12.16 12.89 12.89 0 0 0 4.11 4.15 11 11 0 0 0 5.83 1.6 9.6 9.6 0 0 0 5.18-1.46 11.79 11.79 0 0 0 3.9-4.26 11.77 11.77 0 0 0 .44 1.31 7.68 7.68 0 0 0 2.2 3.09A6.51 6.51 0 0 0 106 96.3a8.69 8.69 0 0 0 3.05-.51 6.28 6.28 0 0 0 1.48-.79l.06 20.38a1 1 0 1 0 1.94 0l-.14-47.22a16.19 16.19 0 0 1 2.33-2.83 11.81 11.81 0 0 1 2.75-2 7.67 7.67 0 0 1 3.47-.89h.06a8.52 8.52 0 0 1 5 1.56 14.78 14.78 0 0 1 5 6.88 25.61 25.61 0 0 1 1.5 5.75l-.45-.11a14 14 0 0 0-2.95-.36 13.07 13.07 0 0 0-9.87 3.84 11.84 11.84 0 0 0-3.16 8.06 9.6 9.6 0 0 0 1.85 5.87 6.81 6.81 0 0 0 2.32 1.93 6.94 6.94 0 0 0 3.15.72 9.62 9.62 0 0 0 5.12-1.4 12.14 12.14 0 0 0 4.74-6.08 23.67 23.67 0 0 0 1.48-8.56v-1.15a16 16 0 0 1 2.27 1.24 15.76 15.76 0 0 1 5.12 5.47l.09.12a17.86 17.86 0 0 0 2.16 4.86 12.18 12.18 0 0 0 4 3.92 11.26 11.26 0 0 0 5.75 1.49 17.61 17.61 0 0 0 10.52-3.65c4.59-3.38 8.14-8.63 10.57-14.19a48.38 48.38 0 0 0 2.58-7.54zm31.49 7.19a17.92 17.92 0 0 1 3.27 4.37 11.29 11.29 0 0 1 1.46 5.17 7.15 7.15 0 0 1-.06 1 6.16 6.16 0 0 1-2.25 4.15 6.79 6.79 0 0 1-4.15 1.35 7 7 0 0 1-4.3-1.35 6.4 6.4 0 0 1-2.42-4.16 9.21 9.21 0 0 1-.13-1.51 7.73 7.73 0 0 1 .49-2.74 11.79 11.79 0 0 1 2.75-4c1.18-1.21 2.56-2.35 3.92-3.54.48.37.96.81 1.42 1.26zM96.84 90.59a9.18 9.18 0 0 1-2.63 2.55 7.65 7.65 0 0 1-4.09 1.13 9.09 9.09 0 0 1-4.82-1.32A12.33 12.33 0 0 1 80.51 87a22.93 22.93 0 0 1-1.63-8.7 20.89 20.89 0 0 1 2.88-11 10.93 10.93 0 0 1 3.47-3.51A9.08 9.08 0 0 1 90 62.44a8.17 8.17 0 0 1 3.73.9 11.49 11.49 0 0 1 3.71 3.13 13.6 13.6 0 0 1 .94 1.34l.23.4v18.53a13.24 13.24 0 0 1-1.77 3.85zm36-10a19.47 19.47 0 0 1-2.39 10 9 9 0 0 1-2.91 3 7.66 7.66 0 0 1-4.1 1.11 5 5 0 0 1-2.28-.52 5.2 5.2 0 0 1-2.27-2.36 8.27 8.27 0 0 1-.83-3.71 9.91 9.91 0 0 1 2.63-6.73c1.79-1.9 4.5-3.24 8.45-3.25a12.12 12.12 0 0 1 2.53.31c.35.08.71.17 1.09.29 0 .57.03 1.2.03 1.82zm17.33-16.93a9.52 9.52 0 0 1 5.11-1.46 6.48 6.48 0 0 1 2.45.44 4.53 4.53 0 0 1 2.24 1.91 5.83 5.83 0 0 1 .76 3 8.7 8.7 0 0 1-2.14 5.45 10.47 10.47 0 0 1-6.42 3.49 23.24 23.24 0 0 1-3.81.32 20.29 20.29 0 0 1-3.66-.32c-.43-.08-.76-.16-1-.22l-.24-.07h-.05a21.38 21.38 0 0 1 3-8.71 12.26 12.26 0 0 1 3.7-3.87zm26.12 5.43h-.17a5.65 5.65 0 0 1-2.76-.66 6.08 6.08 0 0 1-2.56-2.93 10.5 10.5 0 0 1-.86-4.25 9.13 9.13 0 0 1 1-4.39 3.76 3.76 0 0 1 1.06-1.3 2.17 2.17 0 0 1 1.28-.41 2.73 2.73 0 0 1 1.57.45 3.32 3.32 0 0 1 .9.93 7.2 7.2 0 0 1 1 2.45 16.62 16.62 0 0 1 .34 3.53 32.39 32.39 0 0 1-.75 6.54zm-11.73 91.49a1 1 0 0 0-1.28.5 17.57 17.57 0 0 1-2.92 4.27 13.61 13.61 0 0 1-3.54 2.79 10.39 10.39 0 0 1-4.91 1.25 9.3 9.3 0 0 1-4.75-1.22 11.33 11.33 0 0 1-4.57-5.54 21.42 21.42 0 0 1-1.56-8.28v-1.34a20.62 20.62 0 0 0 5.14.6 25.18 25.18 0 0 0 4.12-.34 12.48 12.48 0 0 0 7.58-4.12 10.47 10.47 0 0 0 2.59-6.71 7.28 7.28 0 0 0-1.86-5 6.54 6.54 0 0 0-2.35-1.6 8.49 8.49 0 0 0-3.18-.57 11.5 11.5 0 0 0-6.14 1.75 15.71 15.71 0 0 0-5.9 7.36 26 26 0 0 0-2 10v.73a4 4 0 0 1-.73-.3 8.84 8.84 0 0 1-2.81-2.75 28.8 28.8 0 0 1-3.07-6.07c-.36-.94-.63-1.75-.81-2.34l-.21-.68-.05-.18a1 1 0 0 0-1.9.14v.3a121.07 121.07 0 0 1-2.73 14.46 39.6 39.6 0 0 1-3 8.35 9.6 9.6 0 0 1-1.82 2.5 3.43 3.43 0 0 1-.88.6 2 2 0 0 1-.81.19 2.05 2.05 0 0 1-1-.26 6 6 0 0 1-2-2.14 31.39 31.39 0 0 1-3.21-8.03 120.08 120.08 0 0 1-2.89-14.73c-.3-2.18-.53-4.06-.67-5.39-.07-.67-.13-1.19-.16-1.56v-.55a1 1 0 1 0-1.93.17s.21 2.37.66 5.83a22.8 22.8 0 0 1-6.38 6 27.82 27.82 0 0 0-1.77-5.64 18.2 18.2 0 0 0-3.84-5.73 10.68 10.68 0 0 0-2.9-2 8.46 8.46 0 0 0-3.59-.8 12 12 0 0 0-4.19.71A8.11 8.11 0 0 0 81 141a13.81 13.81 0 0 0-4.94 5.6 17.57 17.57 0 0 0-1.72 7.72 19.48 19.48 0 0 0 1.76 8.1 15.69 15.69 0 0 0 5.17 6.34 13.29 13.29 0 0 0 7.73 2.42 13.64 13.64 0 0 0 7.4-2.19 13.47 13.47 0 0 0 5.11-6.12 22.56 22.56 0 0 0 1.65-8.7 27.38 27.38 0 0 0-.23-3.44 24.72 24.72 0 0 0 5.16-4c.49-.49.9-1 1.25-1.37.37 2.54.85 5.43 1.44 8.32a60.29 60.29 0 0 0 3.43 11.7 15 15 0 0 0 2.48 4.05 6 6 0 0 0 1.58 1.26 4 4 0 0 0 1.89.49 3.93 3.93 0 0 0 1.71-.41 7 7 0 0 0 2.54-2.33 26.51 26.51 0 0 0 3.18-6.94 93.12 93.12 0 0 0 2.89-12.23c.13-.77.25-1.49.36-2.15.36.91.78 1.89 1.28 2.89a19.9 19.9 0 0 0 3.18 4.79 8.66 8.66 0 0 0 2.14 1.69 5.66 5.66 0 0 0 1.78.61 20 20 0 0 0 2.92 8.86 12.13 12.13 0 0 0 4 3.9 11.25 11.25 0 0 0 5.73 1.48 12.34 12.34 0 0 0 5.9-1.52 16.8 16.8 0 0 0 5.47-5 18 18 0 0 0 1.78-3 1 1 0 0 0-.46-1.24zm-80-22.11a6.65 6.65 0 0 1 2.37-1.47 10 10 0 0 1 3.51-.59 6.51 6.51 0 0 1 2.77.62 9.77 9.77 0 0 1 3.4 2.79 17.8 17.8 0 0 1 2.38 4 26 26 0 0 1 1.76 5.86c-.39.2-.8.38-1.22.56a18.59 18.59 0 0 1-7.1 1.42 9.92 9.92 0 0 1-7.24-2.75 8.29 8.29 0 0 1-2.45-5.79 7.28 7.28 0 0 1 .09-1.1 1 1 0 0 0 .1-.52 6.15 6.15 0 0 1 1.63-3.02zm16.62 15.69a20.63 20.63 0 0 1-1.5 7.95 11.52 11.52 0 0 1-4.38 5.24 11.7 11.7 0 0 1-6.3 1.89 11.35 11.35 0 0 1-6.55-2.08 13.75 13.75 0 0 1-4.52-5.56 17.54 17.54 0 0 1-1.58-7.29 15.64 15.64 0 0 1 1.52-6.86 12.09 12.09 0 0 1 3-3.87 10.25 10.25 0 0 0 3 6.69 11.87 11.87 0 0 0 8.62 3.33 20.54 20.54 0 0 0 7.89-1.59l.71-.32c.04.81.09 1.65.09 2.48zm46.74-15.56a9.54 9.54 0 0 1 5.11-1.45 6.55 6.55 0 0 1 2.46.43 4.52 4.52 0 0 1 2.24 1.89 5.7 5.7 0 0 1 .76 2.95 8.54 8.54 0 0 1-2.12 5.45 10.53 10.53 0 0 1-6.43 3.47 23.24 23.24 0 0 1-3.81.32 20.29 20.29 0 0 1-3.66-.32c-.43-.08-.76-.16-1-.22l-.24-.07h-.05a21.19 21.19 0 0 1 2.94-8.56 12.24 12.24 0 0 1 3.8-3.88zm-57.49-4.14zm145.29 0zm-127.44 2.37z"/><path class="cls-2" d="M133.11 178.88a44 44 0 0 1-7.69 4 49.35 49.35 0 0 1-18.72 3.92h-.12a40.68 40.68 0 0 1-17-3.87c-7.73-3.5-14.46-8.79-21.06-13.28a64.39 64.39 0 0 0-9.94-5.76q-1.29-.57-2.61-1a158 158 0 0 0 3.18-15.62c.56-3.58 1-7 1.43-10.15 7.1-.23 12.34-2.77 15.79-6.32a18.61 18.61 0 0 0 5.27-12.8 13.21 13.21 0 0 0-2.33-7.85 8.57 8.57 0 0 0-2.9-2.52 8.37 8.37 0 0 0-3.93-.94 10.25 10.25 0 0 0-4.15.8 8.65 8.65 0 0 0-2.81 2 15.31 15.31 0 0 0-3.21 5.81 76.19 76.19 0 0 0-2.63 13.4c-.28 2.07-.55 4.26-.84 6.56A49.36 49.36 0 0 1 34.19 128a52.4 52.4 0 0 1-6.93-4.94c-.79-.67-1.4-1.23-1.8-1.62L25 121l-.11-.11a1 1 0 1 0-1.42 1.33 48.23 48.23 0 0 0 9.75 7.48 51.34 51.34 0 0 0 25.4 7.43c-.4 3.1-.85 6.38-1.39 9.85a156.1 156.1 0 0 1-3.12 15.36 23.11 23.11 0 0 0-6-.83H48c-8.09 0-14 2.33-17.87 5.66a15.48 15.48 0 0 0-5.72 11.58 10.49 10.49 0 0 0 2.59 7.1 8.88 8.88 0 0 0 3.11 2.22 10.46 10.46 0 0 0 4.15.81 15.56 15.56 0 0 0 10-3.61 24.89 24.89 0 0 0 5.5-6.59 58.29 58.29 0 0 0 5.67-13.89A36.94 36.94 0 0 1 61 167.3c6.39 3.49 12.84 8.83 20.15 13.33s15.54 8.16 25.48 8.16h.12a51.35 51.35 0 0 0 19.69-4.17 45.19 45.19 0 0 0 7.84-4.16 1 1 0 1 0-1.12-1.58zm-70.32-57.56a42.1 42.1 0 0 1 1.41-5.6 12.35 12.35 0 0 1 3.15-5.36 6.57 6.57 0 0 1 2.21-1.31 8.69 8.69 0 0 1 2.92-.46 6.42 6.42 0 0 1 3 .72 7.18 7.18 0 0 1 3.07 3.34A12.3 12.3 0 0 1 79.7 118a16.68 16.68 0 0 1-4.7 11.46c-3 3.12-7.64 5.43-14.15 5.72.18-1.44.36-2.84.53-4.18.42-3.61.87-6.86 1.41-9.68zm-13.26 53.74a25.89 25.89 0 0 1-6.5 8.71 13.59 13.59 0 0 1-8.79 3.18 8.52 8.52 0 0 1-3.39-.65 7 7 0 0 1-3.31-2.94 9 9 0 0 1-1.17-4.59 13.55 13.55 0 0 1 5-10.11c3.48-3 8.88-5.17 16.61-5.2h.06a21.16 21.16 0 0 1 5.51.76 63.6 63.6 0 0 1-4.02 10.84zm246.14-65.92zm16.41 28.61a1 1 0 1 0-1.94 0v.1a20.12 20.12 0 0 1-1.54 8.37 11.36 11.36 0 0 1-2.54 3.62 11.09 11.09 0 0 1-4.6 2.57 13.88 13.88 0 0 1-3.77.53h-.94a1 1 0 0 0-.92 1.51 39.94 39.94 0 0 1 6.82 22 23.64 23.64 0 0 1-1.85 9.88 8 8 0 0 1-2 2.71 3.45 3.45 0 0 1-2.24.88 3.4 3.4 0 0 1-1.78-.48 4.77 4.77 0 0 1-1.3-1.18 11.61 11.61 0 0 1-1.76-3.56 34.13 34.13 0 0 1-1.33-7c-.23-2.35-.28-4.5-.28-5.91V170l-.1-32.8h.76a11.16 11.16 0 0 0 5.46-1.36 10.28 10.28 0 0 0 2.92-2.47 14.09 14.09 0 0 0 2.57-5.12 21.68 21.68 0 0 0 .77-5.87 22.08 22.08 0 0 0-1.77-8.92 9.71 9.71 0 0 0-2.1-3.07 5.18 5.18 0 0 0-1.39-.95 4 4 0 0 0-1.63-.36 5.23 5.23 0 0 0-2.42.58 5.88 5.88 0 0 0-1.65 1.3 10.42 10.42 0 0 0-1.91 3.35 26.8 26.8 0 0 0-1.35 6.24 54.09 54.09 0 0 0-.3 5.88c0 1.94.09 3.31.11 3.54v5.09a14 14 0 0 1-4.07-1.27c-2.76-1.34-5-3.5-7.42-5.73a26.62 26.62 0 0 0-9-5.88 18.92 18.92 0 0 0-15.9 1.32 17.85 17.85 0 0 0-3.56 2.52 1 1 0 0 0 1.35 1.39 16.27 16.27 0 0 1 3.24-2.26 17 17 0 0 1 14.28-1.09 20.64 20.64 0 0 1 5.91 3.37c2.58 2 4.77 4.44 7.45 6.4a18 18 0 0 0 4.52 2.45 16.15 16.15 0 0 0 3.3.8l.07 24.94a19.27 19.27 0 0 1-1.93 3.65 10.41 10.41 0 0 1-2.21 2.42 4.47 4.47 0 0 1-2.69 1 4.16 4.16 0 0 1-1.5-.26 3.93 3.93 0 0 1-1.8-1.45 9.51 9.51 0 0 1-1.42-3.76 19.67 19.67 0 0 1-.3-3.44v-12.16a17.14 17.14 0 0 0-1.42-6.31 11.15 11.15 0 0 0-3.45-4.44 10.9 10.9 0 0 0-6.69-2 9.75 9.75 0 0 0-4.39 1.09 14.63 14.63 0 0 0-4.18 3.3v-3.27a1 1 0 1 0-1.94 0v6.35a22.8 22.8 0 0 1-6.37 6 27.83 27.83 0 0 0-1.77-5.64 18.2 18.2 0 0 0-3.84-5.73 10.68 10.68 0 0 0-2.9-2 8.46 8.46 0 0 0-3.59-.8 12 12 0 0 0-4.19.71 8.11 8.11 0 0 0-5.22 5.82 13.81 13.81 0 0 0-4.94 5.6 17.57 17.57 0 0 0-1.72 7.72 19.74 19.74 0 0 0 .54 4.53 24.74 24.74 0 0 1-5.88 6.72 18.47 18.47 0 0 1-8.21 3.7 20.6 20.6 0 0 1-3.53.31 20.07 20.07 0 0 1-12.14-4.15 26.34 26.34 0 0 1-8.17-10.56 33.11 33.11 0 0 1-2.67-13.29 41.82 41.82 0 0 1 4.26-18.07 28.43 28.43 0 0 1 8.38-10.43 20.45 20.45 0 0 1 12.38-4.19 10.19 10.19 0 0 1 4.59 1.06 10.39 10.39 0 0 1 2.3 1.57h-.11a9.33 9.33 0 0 0-4.41 3.87 10.15 10.15 0 0 0-1.38 5.11 8 8 0 0 0 1.32 4.6 5.14 5.14 0 0 0 1.69 1.55 4.74 4.74 0 0 0 2.33.59 6.84 6.84 0 0 0 2.85-.57 5.76 5.76 0 0 0 2.77-2.69 8.55 8.55 0 0 0 .86-3.89 13 13 0 0 0-.85-4.5 14.54 14.54 0 0 0-1.54-3c.34 0 .68 0 1-.05a11.09 11.09 0 0 1 5.94 1.72 10.88 10.88 0 0 1 1.55 1.18c.17.16.3.29.38.37l.09.1a1 1 0 1 0 1.49-1.25 11.35 11.35 0 0 0-2.49-2.06 13 13 0 0 0-7-2 13.16 13.16 0 0 0-2.44.23 13.1 13.1 0 0 0-1.36-1.27 12.06 12.06 0 0 0-7.66-2.67 22.41 22.41 0 0 0-13.54 4.57 30.36 30.36 0 0 0-9 11.14 43.75 43.75 0 0 0-4.46 18.92 35 35 0 0 0 2.83 14.07 28.27 28.27 0 0 0 8.79 11.31 22 22 0 0 0 13.3 4.54 22.54 22.54 0 0 0 3.86-.34 20.41 20.41 0 0 0 9.06-4.08 26 26 0 0 0 5.43-5.83c.15.39.31.77.48 1.15a15.69 15.69 0 0 0 5.17 6.34 13.29 13.29 0 0 0 7.66 2.43 13.64 13.64 0 0 0 7.4-2.19 13.47 13.47 0 0 0 5.11-6.12 22.56 22.56 0 0 0 1.65-8.7 27.38 27.38 0 0 0-.23-3.44 24.72 24.72 0 0 0 5.16-4c.32-.33.62-.64.88-.94l.07 24.47a1 1 0 1 0 1.94 0l-.08-27.5a15.82 15.82 0 0 1 2.35-2.78 11.75 11.75 0 0 1 2.75-2 7.79 7.79 0 0 1 3.47-.86 9 9 0 0 1 5.53 1.65 8.7 8.7 0 0 1 2.32 2.67 13.79 13.79 0 0 1 1.54 4.42c.11.63.17 1.17.2 1.55v12.73a18.69 18.69 0 0 0 1 6.23 7.92 7.92 0 0 0 2.07 3.19 5.56 5.56 0 0 0 1.72 1 6.11 6.11 0 0 0 2.19.38 6.43 6.43 0 0 0 3.9-1.44 13 13 0 0 0 2.93-3.35v5.55a53.37 53.37 0 0 0 1.18 11.65 16.57 16.57 0 0 0 2.39 5.75 6.91 6.91 0 0 0 2 1.94 5.36 5.36 0 0 0 2.77.75 5.4 5.4 0 0 0 3.48-1.33 11.83 11.83 0 0 0 3.34-5.61 28.69 28.69 0 0 0 1.16-8.47 42 42 0 0 0-6.16-21.59 15.88 15.88 0 0 0 3-.43A13.89 13.89 0 0 0 305 153a12.65 12.65 0 0 0 4.94-5.14 21.07 21.07 0 0 0 2.13-10zm-22-7.75v-.13c0-.28-.1-1.58-.1-3.38a40.49 40.49 0 0 1 1.1-10.06 10.73 10.73 0 0 1 1.83-3.93 4.08 4.08 0 0 1 1.25-1 3.28 3.28 0 0 1 1.53-.37 2 2 0 0 1 .84.19 4.11 4.11 0 0 1 1.47 1.28 12.52 12.52 0 0 1 1.88 4.19 22.13 22.13 0 0 1 .72 5.65 16.54 16.54 0 0 1-2.28 8.91 8.64 8.64 0 0 1-3 2.86 9.22 9.22 0 0 1-4.52 1.11h-.75zm-76.22-15.6a11.72 11.72 0 0 1 1.63 5.73 5.94 5.94 0 0 1-1.12 3.75 3.68 3.68 0 0 1-1.36 1.05 4.9 4.9 0 0 1-2 .4 2.79 2.79 0 0 1-1.38-.35 3.58 3.58 0 0 1-1.46-1.68 6.67 6.67 0 0 1-.56-2.77 8.06 8.06 0 0 1 2-5.34 7.42 7.42 0 0 1 2.62-1.86c.25-.11.51-.2.78-.29a12.29 12.29 0 0 1 .85 1.36zm16 24.08a6.65 6.65 0 0 1 2.37-1.49 10 10 0 0 1 3.51-.59 6.51 6.51 0 0 1 2.77.62 9.77 9.77 0 0 1 3.4 2.79 17.8 17.8 0 0 1 2.38 4 26 26 0 0 1 1.76 5.86c-.39.2-.8.38-1.22.56a18.59 18.59 0 0 1-7.1 1.42 9.92 9.92 0 0 1-7.24-2.75 8.29 8.29 0 0 1-2.49-5.8 7.28 7.28 0 0 1 .09-1.1 1 1 0 0 0 .1-.52 6.15 6.15 0 0 1 1.66-3zm16.62 15.69a20.63 20.63 0 0 1-1.5 7.95 11.52 11.52 0 0 1-4.38 5.24 11.7 11.7 0 0 1-6.35 1.88 11.35 11.35 0 0 1-6.55-2.08 13.75 13.75 0 0 1-4.52-5.56 17.54 17.54 0 0 1-1.58-7.29 15.64 15.64 0 0 1 1.52-6.86 12.09 12.09 0 0 1 3-3.87 10.25 10.25 0 0 0 3 6.69 11.87 11.87 0 0 0 8.62 3.33 20.54 20.54 0 0 0 7.89-1.59l.71-.32c.09.81.13 1.65.13 2.48zM33 30.71a31.51 31.51 0 0 1 19.12-6.83 23.94 23.94 0 0 1 10.35 2.26 22.28 22.28 0 0 1 8.51 7.18 29 29 0 0 1 5.2 16.91 30.58 30.58 0 0 1-3.26 13.87 24.2 24.2 0 0 1-9.62 10.19 18.68 18.68 0 0 1-9.08 2.45 15.85 15.85 0 0 1-3.51-.39l-.63-.17L50 53a11.12 11.12 0 0 1 2.15-.21A10.36 10.36 0 0 1 59 55.34a1 1 0 0 0 1.27-1.47 12.31 12.31 0 0 0-8.15-3.06A13.09 13.09 0 0 0 50 51V35.75a1 1 0 1 0-1.94 0v15.71a14.54 14.54 0 0 0-5.86 3.63 12.73 12.73 0 0 0-3.87 9A13.91 13.91 0 0 0 41.67 73a15.74 15.74 0 0 0 6.45 4.57L48.17 95a1 1 0 1 0 1.94 0l-.05-16.85.2.05a17.79 17.79 0 0 0 3.94.43 20.61 20.61 0 0 0 10-2.7 26.14 26.14 0 0 0 10.4-11 32.51 32.51 0 0 0 3.47-14.76 30.9 30.9 0 0 0-5.57-18 24.23 24.23 0 0 0-9.25-7.79 25.88 25.88 0 0 0-11.19-2.45 33.44 33.44 0 0 0-20.32 7.24 44.61 44.61 0 0 0-11.51 13.46 1 1 0 0 0 1.71.93A42.68 42.68 0 0 1 33 30.71zm10.16 41.05a12 12 0 0 1-2.91-7.62 10.78 10.78 0 0 1 3.31-7.68A12.66 12.66 0 0 1 48 53.53l.07 22a13.79 13.79 0 0 1-4.91-3.77zm243.93-2.35a25.43 25.43 0 0 0-2 9.9 21 21 0 0 0 3.08 11.47 12.06 12.06 0 0 0 4 3.85 11.36 11.36 0 0 0 5.83 1.46 13.15 13.15 0 0 0 6-1.51 19.22 19.22 0 0 0 5.9-4.93 20.43 20.43 0 0 0 2.05-3 1 1 0 0 0-1.71-.92A20.21 20.21 0 0 1 307 90a15.86 15.86 0 0 1-3.86 2.85 11.19 11.19 0 0 1-5.1 1.27 9.41 9.41 0 0 1-4.76-1.21 11.21 11.21 0 0 1-4.57-5.47 20.89 20.89 0 0 1-1.55-8.16v-1.55a20.65 20.65 0 0 0 5.13.6 25.18 25.18 0 0 0 4.12-.34A12.65 12.65 0 0 0 304 74a10.07 10.07 0 0 0 2.59-6.55 7 7 0 0 0-1.87-4.92 6.55 6.55 0 0 0-2.39-1.53 8.69 8.69 0 0 0-3.17-.55 11.6 11.6 0 0 0-6.16 1.68 15.56 15.56 0 0 0-5.91 7.28zm6.91-5.62a9.65 9.65 0 0 1 5.12-1.44 6.76 6.76 0 0 1 2.47.42 4.47 4.47 0 0 1 2.23 1.83 5.35 5.35 0 0 1 .75 2.83 8.14 8.14 0 0 1-2.11 5.27 10.71 10.71 0 0 1-6.43 3.4 23.24 23.24 0 0 1-3.81.32 20.28 20.28 0 0 1-3.66-.32c-.43-.08-.76-.16-1-.22l-.24-.07a20.61 20.61 0 0 1 2.9-8.21 12.16 12.16 0 0 1 3.78-3.81zm-87.63-8.1a12.61 12.61 0 0 0 6.82 2 12.75 12.75 0 0 0 8.38-3.12 11.12 11.12 0 0 0 2.72-3.57 10.8 10.8 0 0 0 1-4.64 12.45 12.45 0 0 0-.34-2.84 1 1 0 1 0-1.89.44 10.51 10.51 0 0 1 .29 2.4 8.86 8.86 0 0 1-.84 3.81 9.5 9.5 0 0 1-3.78 4.08 11 11 0 0 1-5.57 1.52 10.67 10.67 0 0 1-5.77-1.69 13 13 0 0 1-4.72-5.3 15.75 15.75 0 0 1-1.53-6.92 19 19 0 0 1 2.51-9.37 15 15 0 0 1 6-5.67 18.08 18.08 0 0 1 8.46-2.12 15.83 15.83 0 0 1 10.38 3.74 18.84 18.84 0 0 1 5.93 9.86 45.55 45.55 0 0 1 1.19 11.44l.1 30.21v.44a23.65 23.65 0 0 0 1.54 8.44 11.75 11.75 0 0 0 3.35 4.74 9.73 9.73 0 0 0 6.32 2.11 9.29 9.29 0 0 0 5.83-2 16.21 16.21 0 0 0 4.67-6.68l.12-.29c.15.51.32 1 .51 1.55a12.45 12.45 0 0 0 3.32 5 9.06 9.06 0 0 0 2.8 1.74 10.32 10.32 0 0 0 3.63.62 10.63 10.63 0 0 0 6.55-2 10.85 10.85 0 0 0 2.89-3.34 17.57 17.57 0 0 0 1.94-5.66 24.33 24.33 0 0 0 .36-4.07v-.6l-.1-29.34v-.12a17 17 0 0 1 1.6-7 10.15 10.15 0 0 1 3.4-4 11.4 11.4 0 0 1 6.56-1.83 1 1 0 1 0 0-1.94 13.34 13.34 0 0 0-7.62 2.1 11.68 11.68 0 0 0-3.38 3.46 16.42 16.42 0 0 0-2.17 5.67 19 19 0 0 0-.36 3.48v.16l.1 29.36v.52a20.14 20.14 0 0 1-1.49 7.68 9.54 9.54 0 0 1-2.9 3.85 8.68 8.68 0 0 1-5.38 1.63 8.38 8.38 0 0 1-2.95-.5 7.53 7.53 0 0 1-3.47-2.7 15.41 15.41 0 0 1-2.43-6.17 24.2 24.2 0 0 1-.41-4.23v-.12l-.1-18.52a1 1 0 1 0-1.94 0l.1 18.51v.18a25.55 25.55 0 0 0 .17 2.72 21.55 21.55 0 0 1-2.19 5.7 12.17 12.17 0 0 1-3 3.65 7.32 7.32 0 0 1-4.58 1.58 7.77 7.77 0 0 1-5.1-1.68 9.05 9.05 0 0 1-2.25-2.84A17 17 0 0 1 238 84a23.89 23.89 0 0 1-.3-3.66V80l-.1-30.23a47.39 47.39 0 0 0-1.25-11.93A20.79 20.79 0 0 0 229.8 27a17.78 17.78 0 0 0-11.64-4.2 20 20 0 0 0-9.38 2.35A17 17 0 0 0 202 31.5a21 21 0 0 0-2.76 10.33 17.68 17.68 0 0 0 1.76 7.78 14.91 14.91 0 0 0 5.37 6.08z"/></g></svg>